<svg xmlns="http://www.w3.org/2000/svg" width="300" height="300">
<line x1="30" y1="10" x2="10" y2="10" stroke="black" stroke-width="2"/>
<line x1="50" y1="10" x2="50" y2="30" stroke="black" stroke-width="2"/>
<line x1="70" y1="10" x2="50" y2="10" stroke="black" stroke-width="2"/>
<line x1="90" y1="10" x2="70" y2="10" stroke="black" stroke-width="2"/>
<line x1="110" y1="10" x2="110" y2="30" stroke="black" stroke-width="2"/>
<line x1="130" y1="10" x2="110" y2="10" stroke="black" stroke-width="2"/>
<line x1="150" y1="10" x2="150" y2="30" stroke="black" stroke-width="2"/>
<line x1="170" y1="10" x2="150" y2="10" stroke="black" stroke-width="2"/>
<line x1="190" y1="10" x2="190" y2="30" stroke="black" stroke-width="2"/>
<line x1="210" y1="10" x2="230" y2="10" stroke="black" stroke-width="2"/>
<line x1="230" y1="10" x2="230" y2="30" stroke="black" stroke-width="2"/>
<line x1="250" y1="10" x2="230" y2="10" stroke="black" stroke-width="2"/>
<line x1="270" y1="10" x2="290" y2="10" stroke="black" stroke-width="2"/>
<line x1="290" y1="10" x2="290" y2="30" stroke="black" stroke-width="2"/>
<line x1="10" y1="30" x2="10" y2="10" stroke="black" stroke-width="2"/>
<line x1="30" y1="30" x2="50" y2="30" stroke="black" stroke-width="2"/>
<line x1="50" y1="30" x2="50" y2="50" stroke="black" stroke-width="2"/>
<line x1="70" y1="30" x2="90" y2="30" stroke="black" stroke-width="2"/>
<line x1="90" y1="30" x2="90" y2="10" stroke="black" stroke-width="2"/>
<line x1="110" y1="30" x2="130" y2="30" stroke="black" stroke-width="2"/>
<line x1="130" y1="30" x2="150" y2="30" stroke="black" stroke-width="2"/>
<line x1="150" y1="30" x2="150" y2="50" stroke="black" stroke-width="2"/>
<line x1="170" y1="30" x2="170" y2="50" stroke="black" stroke-width="2"/>
<line x1="190" y1="30" x2="190" y2="50" stroke="black" stroke-width="2"/>
<line x1="210" y1="30" x2="210" y2="10" stroke="black" stroke-width="2"/>
<line x1="230" y1="30" x2="250" y2="30" stroke="black" stroke-width="2"/>
<line x1="250" y1="30" x2="250" y2="50" stroke="black" stroke-width="2"/>
<line x1="270" y1="30" x2="250" y2="30" stroke="black" stroke-width="2"/>
<line x1="290" y1="30" x2="270" y2="30" stroke="black" stroke-width="2"/>
<line x1="10" y1="50" x2="10" y2="30" stroke="black" stroke-width="2"/>
<line x1="30" y1="50" x2="10" y2="50" stroke="black" stroke-width="2"/>
<line x1="50" y1="50" x2="30" y2="50" stroke="black" stroke-width="2"/>
<line x1="70" y1="50" x2="90" y2="50" stroke="black" stroke-width="2"/>
<line x1="90" y1="50" x2="90" y2="30" stroke="black" stroke-width="2"/>
<line x1="110" y1="50" x2="110" y2="70" stroke="black" stroke-width="2"/>
<line x1="130" y1="50" x2="130" y2="30" stroke="black" stroke-width="2"/>
<line x1="150" y1="50" x2="150" y2="70" stroke="black" stroke-width="2"/>
<line x1="170" y1="50" x2="190" y2="50" stroke="black" stroke-width="2"/>
<line x1="190" y1="50" x2="190" y2="70" stroke="black" stroke-width="2"/>
<line x1="210" y1="50" x2="230" y2="50" stroke="black" stroke-width="2"/>
<line x1="230" y1="50" x2="230" y2="70" stroke="black" stroke-width="2"/>
<line x1="250" y1="50" x2="250" y2="70" stroke="black" stroke-width="2"/>
<line x1="270" y1="50" x2="290" y2="50" stroke="black" stroke-width="2"/>
<line x1="290" y1="50" x2="290" y2="70" stroke="black" stroke-width="2"/>
<line x1="10" y1="70" x2="10" y2="90" stroke="black" stroke-width="2"/>
<line x1="30" y1="70" x2="30" y2="50" stroke="black" stroke-width="2"/>
<line x1="50" y1="70" x2="30" y2="70" stroke="black" stroke-width="2"/>
<line x1="70" y1="70" x2="70" y2="50" stroke="black" stroke-width="2"/>
<line x1="90" y1="70" x2="70" y2="70" stroke="black" stroke-width="2"/>
<line x1="110" y1="70" x2="110" y2="90" stroke="black" stroke-width="2"/>
<line x1="130" y1="70" x2="130" y2="50" stroke="black" stroke-width="2"/>
<line x1="150" y1="70" x2="170" y2="70" stroke="black" stroke-width="2"/>
<line x1="170" y1="70" x2="190" y2="70" stroke="black" stroke-width="2"/>
<line x1="190" y1="70" x2="210" y2="70" stroke="black" stroke-width="2"/>
<line x1="210" y1="70" x2="230" y2="70" stroke="black" stroke-width="2"/>
<line x1="230" y1="70" x2="250" y2="70" stroke="black" stroke-width="2"/>
<line x1="250" y1="70" x2="250" y2="90" stroke="black" stroke-width="2"/>
<line x1="270" y1="70" x2="250" y2="70" stroke="black" stroke-width="2"/>
<line x1="290" y1="70" x2="270" y2="70" stroke="black" stroke-width="2"/>
<line x1="10" y1="90" x2="10" y2="110" stroke="black" stroke-width="2"/>
<line x1="30" y1="90" x2="50" y2="90" stroke="black" stroke-width="2"/>
<line x1="50" y1="90" x2="50" y2="70" stroke="black" stroke-width="2"/>
<line x1="70" y1="90" x2="50" y2="90" stroke="black" stroke-width="2"/>
<line x1="90" y1="90" x2="110" y2="90" stroke="black" stroke-width="2"/>
<line x1="110" y1="90" x2="110" y2="110" stroke="black" stroke-width="2"/>
<line x1="130" y1="90" x2="130" y2="70" stroke="black" stroke-width="2"/>
<line x1="150" y1="90" x2="130" y2="90" stroke="black" stroke-width="2"/>
<line x1="170" y1="90" x2="170" y2="110" stroke="black" stroke-width="2"/>
<line x1="190" y1="90" x2="170" y2="90" stroke="black" stroke-width="2"/>
<line x1="210" y1="90" x2="230" y2="90" stroke="black" stroke-width="2"/>
<line x1="230" y1="90" x2="230" y2="110" stroke="black" stroke-width="2"/>
<line x1="250" y1="90" x2="250" y2="110" stroke="black" stroke-width="2"/>
<line x1="270" y1="90" x2="290" y2="90" stroke="black" stroke-width="2"/>
<line x1="290" y1="90" x2="290" y2="70" stroke="black" stroke-width="2"/>
<line x1="10" y1="110" x2="30" y2="110" stroke="black" stroke-width="2"/>
<line x1="30" y1="110" x2="30" y2="130" stroke="black" stroke-width="2"/>
<line x1="50" y1="110" x2="50" y2="90" stroke="black" stroke-width="2"/>
<line x1="70" y1="110" x2="50" y2="110" stroke="black" stroke-width="2"/>
<line x1="90" y1="110" x2="70" y2="110" stroke="black" stroke-width="2"/>
<line x1="110" y1="110" x2="110" y2="130" stroke="black" stroke-width="2"/>
<line x1="130" y1="110" x2="150" y2="110" stroke="black" stroke-width="2"/>
<line x1="150" y1="110" x2="170" y2="110" stroke="black" stroke-width="2"/>
<line x1="170" y1="110" x2="190" y2="110" stroke="black" stroke-width="2"/>
<line x1="190" y1="110" x2="190" y2="130" stroke="black" stroke-width="2"/>
<line x1="210" y1="110" x2="190" y2="110" stroke="black" stroke-width="2"/>
<line x1="230" y1="110" x2="210" y2="110" stroke="black" stroke-width="2"/>
<line x1="250" y1="110" x2="230" y2="110" stroke="black" stroke-width="2"/>
<line x1="270" y1="110" x2="250" y2="110" stroke="black" stroke-width="2"/>
<line x1="290" y1="110" x2="270" y2="110" stroke="black" stroke-width="2"/>
<line x1="10" y1="130" x2="10" y2="150" stroke="black" stroke-width="2"/>
<line x1="30" y1="130" x2="50" y2="130" stroke="black" stroke-width="2"/>
<line x1="50" y1="130" x2="50" y2="110" stroke="black" stroke-width="2"/>
<line x1="70" y1="130" x2="70" y2="110" stroke="black" stroke-width="2"/>
<line x1="90" y1="130" x2="70" y2="130" stroke="black" stroke-width="2"/>
<line x1="110" y1="130" x2="110" y2="150" stroke="black" stroke-width="2"/>
<line x1="130" y1="130" x2="130" y2="150" stroke="black" stroke-width="2"/>
<line x1="150" y1="130" x2="130" y2="130" stroke="black" stroke-width="2"/>
<line x1="170" y1="130" x2="150" y2="130" stroke="black" stroke-width="2"/>
<line x1="190" y1="130" x2="190" y2="150" stroke="black" stroke-width="2"/>
<line x1="210" y1="130" x2="230" y2="130" stroke="black" stroke-width="2"/>
<line x1="230" y1="130" x2="230" y2="150" stroke="black" stroke-width="2"/>
<line x1="250" y1="130" x2="270" y2="130" stroke="black" stroke-width="2"/>
<line x1="270" y1="130" x2="270" y2="110" stroke="black" stroke-width="2"/>
<line x1="290" y1="130" x2="290" y2="110" stroke="black" stroke-width="2"/>
<line x1="10" y1="150" x2="30" y2="150" stroke="black" stroke-width="2"/>
<line x1="30" y1="150" x2="50" y2="150" stroke="black" stroke-width="2"/>
<line x1="50" y1="150" x2="70" y2="150" stroke="black" stroke-width="2"/>
<line x1="70" y1="150" x2="90" y2="150" stroke="black" stroke-width="2"/>
<line x1="90" y1="150" x2="90" y2="130" stroke="black" stroke-width="2"/>
<line x1="110" y1="150" x2="90" y2="150" stroke="black" stroke-width="2"/>
<line x1="130" y1="150" x2="110" y2="150" stroke="black" stroke-width="2"/>
<line x1="150" y1="150" x2="150" y2="130" stroke="black" stroke-width="2"/>
<line x1="170" y1="150" x2="150" y2="150" stroke="black" stroke-width="2"/>
<line x1="190" y1="150" x2="170" y2="150" stroke="black" stroke-width="2"/>
<line x1="210" y1="150" x2="230" y2="150" stroke="black" stroke-width="2"/>
<line x1="230" y1="150" x2="250" y2="150" stroke="black" stroke-width="2"/>
<line x1="250" y1="150" x2="250" y2="130" stroke="black" stroke-width="2"/>
<line x1="270" y1="150" x2="270" y2="130" stroke="black" stroke-width="2"/>
<line x1="290" y1="150" x2="290" y2="130" stroke="black" stroke-width="2"/>
<line x1="10" y1="170" x2="10" y2="190" stroke="black" stroke-width="2"/>
<line x1="30" y1="170" x2="10" y2="170" stroke="black" stroke-width="2"/>
<line x1="50" y1="170" x2="70" y2="170" stroke="black" stroke-width="2"/>
<line x1="70" y1="170" x2="70" y2="150" stroke="black" stroke-width="2"/>
<line x1="90" y1="170" x2="70" y2="170" stroke="black" stroke-width="2"/>
<line x1="110" y1="170" x2="90" y2="170" stroke="black" stroke-width="2"/>
<line x1="130" y1="170" x2="130" y2="150" stroke="black" stroke-width="2"/>
<line x1="150" y1="170" x2="150" y2="190" stroke="black" stroke-width="2"/>
<line x1="170" y1="170" x2="190" y2="170" stroke="black" stroke-width="2"/>
<line x1="190" y1="170" x2="190" y2="150" stroke="black" stroke-width="2"/>
<line x1="210" y1="170" x2="190" y2="170" stroke="black" stroke-width="2"/>
<line x1="230" y1="170" x2="230" y2="150" stroke="black" stroke-width="2"/>
<line x1="250" y1="170" x2="250" y2="150" stroke="black" stroke-width="2"/>
<line x1="270" y1="170" x2="250" y2="170" stroke="black" stroke-width="2"/>
<line x1="290" y1="170" x2="290" y2="150" stroke="black" stroke-width="2"/>
<line x1="10" y1="190" x2="10" y2="210" stroke="black" stroke-width="2"/>
<line x1="30" y1="190" x2="50" y2="190" stroke="black" stroke-width="2"/>
<line x1="50" y1="190" x2="50" y2="170" stroke="black" stroke-width="2"/>
<line x1="70" y1="190" x2="70" y2="170" stroke="black" stroke-width="2"/>
<line x1="90" y1="190" x2="70" y2="190" stroke="black" stroke-width="2"/>
<line x1="110" y1="190" x2="110" y2="170" stroke="black" stroke-width="2"/>
<line x1="130" y1="190" x2="130" y2="210" stroke="black" stroke-width="2"/>
<line x1="150" y1="190" x2="170" y2="190" stroke="black" stroke-width="2"/>
<line x1="170" y1="190" x2="170" y2="170" stroke="black" stroke-width="2"/>
<line x1="190" y1="190" x2="190" y2="170" stroke="black" stroke-width="2"/>
<line x1="210" y1="190" x2="190" y2="190" stroke="black" stroke-width="2"/>
<line x1="230" y1="190" x2="210" y2="190" stroke="black" stroke-width="2"/>
<line x1="250" y1="190" x2="250" y2="210" stroke="black" stroke-width="2"/>
<line x1="270" y1="190" x2="270" y2="210" stroke="black" stroke-width="2"/>
<line x1="290" y1="190" x2="270" y2="190" stroke="black" stroke-width="2"/>
<line x1="10" y1="210" x2="30" y2="210" stroke="black" stroke-width="2"/>
<line x1="30" y1="210" x2="30" y2="190" stroke="black" stroke-width="2"/>
<line x1="50" y1="210" x2="50" y2="190" stroke="black" stroke-width="2"/>
<line x1="70" y1="210" x2="70" y2="230" stroke="black" stroke-width="2"/>
<line x1="90" y1="210" x2="90" y2="190" stroke="black" stroke-width="2"/>
<line x1="110" y1="210" x2="90" y2="210" stroke="black" stroke-width="2"/>
<line x1="130" y1="210" x2="130" y2="230" stroke="black" stroke-width="2"/>
<line x1="150" y1="210" x2="170" y2="210" stroke="black" stroke-width="2"/>
<line x1="170" y1="210" x2="170" y2="230" stroke="black" stroke-width="2"/>
<line x1="190" y1="210" x2="190" y2="190" stroke="black" stroke-width="2"/>
<line x1="210" y1="210" x2="190" y2="210" stroke="black" stroke-width="2"/>
<line x1="230" y1="210" x2="210" y2="210" stroke="black" stroke-width="2"/>
<line x1="250" y1="210" x2="270" y2="210" stroke="black" stroke-width="2"/>
<line x1="270" y1="210" x2="270" y2="230" stroke="black" stroke-width="2"/>
<line x1="290" y1="210" x2="290" y2="190" stroke="black" stroke-width="2"/>
<line x1="10" y1="230" x2="10" y2="210" stroke="black" stroke-width="2"/>
<line x1="30" y1="230" x2="10" y2="230" stroke="black" stroke-width="2"/>
<line x1="50" y1="230" x2="30" y2="230" stroke="black" stroke-width="2"/>
<line x1="70" y1="230" x2="50" y2="230" stroke="black" stroke-width="2"/>
<line x1="90" y1="230" x2="70" y2="230" stroke="black" stroke-width="2"/>
<line x1="110" y1="230" x2="90" y2="230" stroke="black" stroke-width="2"/>
<line x1="130" y1="230" x2="130" y2="250" stroke="black" stroke-width="2"/>
<line x1="150" y1="230" x2="150" y2="250" stroke="black" stroke-width="2"/>
<line x1="170" y1="230" x2="170" y2="250" stroke="black" stroke-width="2"/>
<line x1="190" y1="230" x2="190" y2="210" stroke="black" stroke-width="2"/>
<line x1="210" y1="230" x2="210" y2="210" stroke="black" stroke-width="2"/>
<line x1="230" y1="230" x2="230" y2="250" stroke="black" stroke-width="2"/>
<line x1="250" y1="230" x2="250" y2="210" stroke="black" stroke-width="2"/>
<line x1="270" y1="230" x2="270" y2="250" stroke="black" stroke-width="2"/>
<line x1="290" y1="230" x2="290" y2="250" stroke="black" stroke-width="2"/>
<line x1="10" y1="250" x2="30" y2="250" stroke="black" stroke-width="2"/>
<line x1="30" y1="250" x2="30" y2="230" stroke="black" stroke-width="2"/>
<line x1="50" y1="250" x2="50" y2="230" stroke="black" stroke-width="2"/>
<line x1="70" y1="250" x2="70" y2="270" stroke="black" stroke-width="2"/>
<line x1="90" y1="250" x2="90" y2="230" stroke="black" stroke-width="2"/>
<line x1="110" y1="250" x2="110" y2="270" stroke="black" stroke-width="2"/>
<line x1="130" y1="250" x2="110" y2="250" stroke="black" stroke-width="2"/>
<line x1="150" y1="250" x2="130" y2="250" stroke="black" stroke-width="2"/>
<line x1="170" y1="250" x2="170" y2="270" stroke="black" stroke-width="2"/>
<line x1="190" y1="250" x2="190" y2="230" stroke="black" stroke-width="2"/>
<line x1="210" y1="250" x2="210" y2="230" stroke="black" stroke-width="2"/>
<line x1="230" y1="250" x2="250" y2="250" stroke="black" stroke-width="2"/>
<line x1="250" y1="250" x2="250" y2="270" stroke="black" stroke-width="2"/>
<line x1="270" y1="250" x2="270" y2="270" stroke="black" stroke-width="2"/>
<line x1="290" y1="250" x2="290" y2="270" stroke="black" stroke-width="2"/>
<line x1="10" y1="270" x2="30" y2="270" stroke="black" stroke-width="2"/>
<line x1="30" y1="270" x2="30" y2="250" stroke="black" stroke-width="2"/>
<line x1="50" y1="270" x2="70" y2="270" stroke="black" stroke-width="2"/>
<line x1="70" y1="270" x2="90" y2="270" stroke="black" stroke-width="2"/>
<line x1="90" y1="270" x2="90" y2="250" stroke="black" stroke-width="2"/>
<line x1="110" y1="270" x2="90" y2="270" stroke="black" stroke-width="2"/>
<line x1="130" y1="270" x2="130" y2="250" stroke="black" stroke-width="2"/>
<line x1="150" y1="270" x2="150" y2="250" stroke="black" stroke-width="2"/>
<line x1="170" y1="270" x2="170" y2="290" stroke="black" stroke-width="2"/>
<line x1="190" y1="270" x2="190" y2="250" stroke="black" stroke-width="2"/>
<line x1="210" y1="270" x2="210" y2="250" stroke="black" stroke-width="2"/>
<line x1="230" y1="270" x2="210" y2="270" stroke="black" stroke-width="2"/>
<line x1="250" y1="270" x2="250" y2="290" stroke="black" stroke-width="2"/>
<line x1="270" y1="270" x2="250" y2="270" stroke="black" stroke-width="2"/>
<line x1="290" y1="270" x2="270" y2="270" stroke="black" stroke-width="2"/>
<line x1="10" y1="290" x2="30" y2="290" stroke="black" stroke-width="2"/>
<line x1="30" y1="290" x2="50" y2="290" stroke="black" stroke-width="2"/>
<line x1="50" y1="290" x2="50" y2="270" stroke="black" stroke-width="2"/>
<line x1="70" y1="290" x2="90" y2="290" stroke="black" stroke-width="2"/>
<line x1="90" y1="290" x2="90" y2="270" stroke="black" stroke-width="2"/>
<line x1="110" y1="290" x2="130" y2="290" stroke="black" stroke-width="2"/>
<line x1="130" y1="290" x2="130" y2="270" stroke="black" stroke-width="2"/>
<line x1="150" y1="290" x2="170" y2="290" stroke="black" stroke-width="2"/>
<line x1="170" y1="290" x2="190" y2="290" stroke="black" stroke-width="2"/>
<line x1="190" y1="290" x2="190" y2="270" stroke="black" stroke-width="2"/>
<line x1="210" y1="290" x2="210" y2="270" stroke="black" stroke-width="2"/>
<line x1="230" y1="290" x2="210" y2="290" stroke="black" stroke-width="2"/>
<line x1="250" y1="290" x2="230" y2="290" stroke="black" stroke-width="2"/>
<line x1="270" y1="290" x2="270" y2="270" stroke="black" stroke-width="2"/>
<line x1="290" y1="290" x2="290" y2="270" stroke="black" stroke-width="2"/>
</svg>
